<svg aria-hidden="true" style="position: absolute; width: 0; height: 0; overflow: hidden;" version="1.1" xmlns="http://www.w3.org/2000/svg" xmlns:xlink="http://www.w3.org/1999/xlink">
<defs>
<symbol id="icon-cat1" viewBox="0 0 32 32">
<path d="M24.563 18.035c-1.691-2.047-4.026-3.817-4.001-6.62 0.015-1.795 1.398-3.418 3.213-3.418 1.583 0 2.852 1.211 2.852 2.62 0 0.931-0.586 1.537-1.211 1.537-0.959 0-0.87-1.103-1.742-1.103-0.614 0-0.829 0.57-0.829 0.897 0 0.932 1.123 1.996 2.479 1.979 1.78-0.023 3.11-1.58 3.11-3.232 0-2.365-1.912-4.474-4.598-4.474-2.936 0-5.189 2.31-5.189 5.286 0 2.332 1.258 4.006 2.755 5.683 1.526 1.716 3.341 3.282 3.341 6.451 0 1.728-0.955 3.355-2.449 4.403 0.476-1.286 0.608-2.298 0.561-3.416-0.12-2.84-1.413-5.789-4.010-7.991-1.674-1.375-3.878-1.642-5.236-3.457-0.315-0.438-0.406-0.82-0.421-1.341 0.623-0.472 1.087-0.873 1.382-1.144 0.815 0.435 1.568 1.178 1.674 1.178 0.088 0-0.616-0.899-1.518-1.386 0.091-0.122 0.166-0.265 0.239-0.415 1.046 0.195 2.062 0.529 2.121 0.477 0.059-0.050-0.897-0.675-1.989-0.801 0.051-0.154 0.093-0.314 0.124-0.492 1.125-0.091 2.079 0.084 2.113 0.017 0.041-0.091-0.884-0.41-2.049-0.492 0.108-0.827-0.072-1.709-0.334-2.602 0.677-1.921 0.588-2.953 0.53-4.516-1.303 0.392-2.278 1.373-3.063 1.885-1.178-0.356-1.868-0.33-3.276-0.143-0.829-1.35-1.582-2.026-2.612-2.51-1.108 1.678-1.166 3.32-0.987 5.007 0.032 0.335-0.392 1.179-0.404 2.010-0.005 0.186 0 0.364 0.013 0.534-0.959 0.092-1.798 0.355-1.778 0.355 0.088 0.026 0.884-0.134 1.819-0.134 0.042 0.259 0.101 0.499 0.172 0.719-0.916 0.319-1.8 0.996-1.8 0.996 0.059 0.059 0.896-0.42 1.896-0.614 0.072 0.202 0.145 0.389 0.191 0.556-0.013 0.101-0.024 0.214-0.029 0.328-0.777 0.447-1.389 1.114-1.356 1.088 0.073-0.026 0.579-0.463 1.335-0.73-0.029 1.074-1.096 2.458-1.083 4.751 0.008 1.265 0.314 2.284 0.846 3.441 1.055 2.399 1.695 5.408 1.588 8.169-0.017 0.306-0.154 0.323-0.239 0.348-0.74 0.228-1.046 0.856-1.033 1.422 0.020 0.831 0.71 1.192 1.765 1.056 0.148 0.625 0.823 0.849 1.559 0.832 1.375-0.033 1.998-0.421 2.317-1.623 0.205-0.806 0.424-1.586 0.686-2.509 0.428 0.524 0.65 0.74 1.262 1.153-0.988 0.076-1.274 0.897-1.274 1.569 0 0.788 0.582 1.193 1.541 1.143 1.972-0.105 3.25-0.131 5.396-0.214 3.871-0.148 6.644-2.253 7.581-5.562 0.532-2.273-0.141-4.631-1.951-6.952zM14.94 2.611c0.073 0.998-0.253 2.026-0.471 2.903-0.285-0.237-0.617-0.543-0.754-0.704 0.397-0.686 0.984-1.873 1.225-2.199zM6.056 5.999c-0.275-1.504 0.026-2.897 0.717-4.095 0.787 0.508 1.507 1.599 2.077 2.152 0.15 0.143 0.209 0.051 0.358 0 1.29-0.379 2.278-0.214 3.558 0.325 0.845-0.759 1.193-1.094 2.097-1.605-0.111 0.947-0.472 1.693-0.913 2.422-0.223-0.195-0.402-0.347-0.535-0.422 0.531-0.882 1.156-1.855 1.322-1.956-0.518 0.215-1.176 1.115-1.664 1.775 1.018 0.768 1.658 2.045 1.658 3.453 0 0.237-0.032 0.461-0.078 0.672-0.673 0.127-1.514 0.358-1.498 0.417 0.017 0.051 0.828-0.026 1.399-0.084-0.059 0.187-0.131 0.36-0.204 0.512-0.649-0.024-1.26 0.076-1.252 0.127 0.009 0.050 0.579 0.059 1.102 0.11-0.097 0.161-0.202 0.3-0.319 0.428l0.002-0.002c-0.356-0.118-0.695-0.177-0.79-0.143 0.082 0.068 0.384 0.186 0.646 0.317-0.955 0.974-2.267 1.366-2.715 1.366-0.817 0-1.674-0.467-2.662-0.658 1.005 0.81 1.754 1.257 2.771 1.257 0.48 0 0.943-0.118 1.275-0.236 0.108 1.67 1.26 2.839 4.078 4.189 3.373 1.573 5.519 4.575 5.54 8.5 0.009 1.635-0.531 3.438-1.452 4.39-0.379 0.396-0.744 0.438-1.531 0.497-1.605 0.118-4.156 0.193-5.574 0.252-0.463 0.017-0.588-0.127-0.588-0.364 0-0.275 0.191-0.538 0.526-0.672-0.463 0-0.704 0.335-0.763 0.698-0.174-0.554 0.182-1.018 0.952-1.018 1.134 0 2.025 0.092 3.534 0.184-1.636-0.712-3.162-1.93-3.162-3.826 0-1.879 1.535-3.469 3.621-3.419 0.335 0.009 0.611 0.077 0.833 0.16 0.108 0.042-0.026-0.127-0.227-0.236-0.44-0.22-0.85-0.262-1.499-0.262-2.077 0-3.469 1.824-3.469 3.849 0 0.764 0.241 1.45 0.458 1.905-0.623-0.439-1.155-1.038-1.155-1.526 0-0.672 1.034-2.907 1.034-4.547 0-1.094-0.356-2.068-0.504-2.473-0.073-0.083-0.073-0.024-0.073 0.026 0.086 0.526 0.132 0.887 0.115 1.504-0.046 1.531-0.669 2.766-1.146 4.271-0.588 1.848-0.872 3.034-1.29 4.837-0.241 1.015-0.627 1.235-1.359 1.235h-0.64c-0.163-0.271-0.116-0.709 0.193-1.028-0.531 0.118-0.655 0.506-0.698 0.781-0.262-0.067-0.449-0.206-0.649-0.443 0.059-0.545 0.321-0.942 1.037-1.204 0.31-0.118 0.326-0.21 0.421-0.614 0.388-1.656 0.685-3.066 0.731-4.74 0.046-1.548-0.306-2.863-0.968-4.082 0.223 1.037 0.445 1.791 0.445 3.2-1.391-1.417-3.726-3.045-3.726-6.545 0-1.887 0.8-3.072 0.767-4.224-0.004-0.161-0.017-0.314-0.033-0.466 1.059-0.554 1.862-0.822 2.917-0.991 0.059-0.026 0.026-0.076-0.033-0.076-0.904 0.026-1.892 0.22-2.783 0.521-0.046-0.187-0.105-0.369-0.177-0.563 1.083-0.207 1.85-0.316 3.064-0.283 0.059 0 0.059-0.092 0-0.101-1.105-0.186-2.122-0.253-3.181-0.202-0.072-0.233-0.127-0.419-0.169-0.593 1.224-0.050 2.456 0.059 3.411 0.326 0.059 0.017 0.092-0.088 0.046-0.114-1.001-0.447-2.23-0.556-3.368-0.556-0.077-0.818 0.115-1.627 0.134-2.294zM6.93 21.078c0.817 0.847 1.536 1.485 2.042 2.149 0.262 0.361 0.204 0.436 0.204 0.915 0 1.152-0.335 2.729-0.558 3.788-0.072 0.328-0.166 0.319-0.389 0.428-0.489 0.246-0.739 0.525-0.9 1.133-0.319 0-1.025 0.109-1.055-0.312-0.046-0.599 0.302-0.819 0.992-0.997 0.2-0.050 0.324-0.184 0.357-0.614 0.161-1.912-0.204-4.869-0.744-6.488z"></path>
<path d="M6.948 2.396c0.489 0.401 1.004 1.164 1.196 1.88-0.406 0.186-0.972 0.616-1.307 1.004 0.137-0.421 0.541-0.851 0.717-1.038-0.108-0.561-0.435-1.194-0.605-1.846zM7.688 6.83c0.365-0.362 0.787-0.506 1.293-0.531 1.121-0.059 1.473 0.952 1.532 1.917l-0.108 0.009c-0.2-0.643-0.548-1.126-0.81-1.21 0.059 0.421-0.108 1.016-0.422 1.016-0.365 0-0.46-0.781-0.326-1.285-0.419-0.084-0.792-0.026-1.158 0.083zM12.095 8.497c0.059-0.964 0.335-1.911 1.352-1.885 0.293 0.008 0.628 0.169 0.847 0.522l-0.095 0.050c-0.241-0.152-0.489-0.193-0.753-0.168 0.090 0.451-0.042 1.126-0.43 1.126-0.275 0-0.37-0.46-0.324-0.882-0.288 0.186-0.442 0.669-0.513 1.228zM10.831 9.091c-0.108 0.143 0.055 0.321 0.242 0.477 0.25 0.211 0.308 0.27 0.275 0.435-0.15 0.634-0.756 0.643-1.509 0.525 0.544 0.335 0.901 0.369 1.336 0.174 0.166-0.076 0.256-0.186 0.328-0.294 0.188 0.31 0.54 0.454 1.004 0.294-0.205-0.026-0.707-0.076-0.856-0.637-0.046-0.195 0.372-0.497 0.462-0.841 0.046-0.22-0.086-0.257-0.348-0.283-0.332-0.026-0.812-0.042-0.933 0.15z"></path>
</symbol>



<symbol id="icon-cat2" viewBox="0 0 32 32">
<path d="M15.68 3.456c-2.024 0-3.738 1.687-3.738 3.876 0 0.366 0.051 0.657 0.051 0.946-0.74 0.289-1.197 1.043-1.14 1.842 0.077 0.979 0.84 3.571 1.14 4.244-0.25 0.105-1.24-0.774-1.756-0.193-0.28 0.333-0.37 0.237-0.492 0.119-0.609-0.49-1.125-0.924-2.068-1.088-0.484-0.522-1.28-2.26-1.868-2.26-0.439 0-0.66 1.472-0.863 2.62-0.516 0.289-0.955 0.623-1.42 1.1-0.708-0.289-1.592-0.527-2.262-0.527-0.439 0-0.439 0.581-0.439 0.699 0.122 1.412 0.669 2.659 1.613 4.010 0.554 1.089 1.032 2.191 3.071 3.325 0.777 0.434 1.197 1.823 3.050 3.192 0.669 0.509 1.427 0.746 2.056 1.134 1.893 1.11 3.825 1.836 6.441 1.836 2.391 0 4.723-0.726 6.54-2.139 0.708-0.575 1.336-1.015 2.177-1.417 2.565-1.233 4.477-3.622 4.477-6.358 0-1.4-0.439-2.523-1.108-3.875-0.439-0.952-0.548-1.462-0.548-2.136 0-1.121 0.873-2.074 1.764-2.583 0.588-0.356 0.74-0.832 0.74-1.207 0-0.819-0.586-1.207-1.172-1.207-2.013 0-4.064 2.177-4.064 4.997 0 1.219 0.509 2.484 0.987 3.546 0.439 0.952 0.623 1.692 0.623 2.572 0 1.35-0.756 2.438-1.591 3.119-0.108-1.082-0.529-1.967-0.707-2.787 0.128-0.627 0.497-0.968 0.497-1.484 0-0.719-0.854-1.651-1.61-2.657-0.636-0.774-1.222-1.414-1.522-2.42-0.178-0.575-0.477-0.895-1.402-1.243-0.991-0.204-1.454 0.616-1.544 1.475-0.529-0.726-0.739-1.093-1.688-1.093-0.586 0-0.854 0.705-0.854 1.139 0 0.952 0.756 1.752 1.426 2.312 0.344 0.289 0.607 0.58 0.836 0.791-1.105 0.434-1.894 1.229-2.193 2.254-0.14 0.211-0.636 0.184-0.916 0.125-0.178-1.783-0.764-3.571-0.764-4.577 0-0.826 0.293-1.215 0.293-2.24 2.013-0.1 3.58-2.016 3.58-3.905 0-2.083-1.567-3.876-3.634-3.876zM15.661 4.129c-0.841 0.204-1.318 0.778-1.618 1.353-0.234 0-0.387-0.289-0.463-0.513 0.54-0.575 1.126-0.84 2.081-0.84zM16.529 4.333c1.027 0.289 1.734 1.242 2.047 2.234-0.989-0.846-1.792-0.846-2.819-0.846-0.44 0-1.027 0-1.281-0.164 0.477-0.726 1.281-1.224 2.053-1.224zM13.528 5.263c0.128 0.289 0.332 0.547 0.433 0.652-0.268 0.289-0.407 0.664-0.509 1.188-0.312 0-0.529 0.1-0.828 0.332-0.069-0.952 0.255-1.633 0.905-2.171zM14.216 6.085c0.439 0.105 0.814 0.105 1.33 0.105 1.398 0 2.271 0 3.105 1.083 0.038 0.819-0.33 1.705-0.771 2.14-1.567 0.105-2.344-1.142-3.191-1.815-0.3-0.211-0.599-0.362-0.829-0.396 0-0.476 0.115-0.831 0.356-1.117zM13.439 7.557c-0.102 0.819 0.141 1.559 0.383 2.134-0.625-0.289-1.096-0.988-1.198-1.663 0.229-0.289 0.516-0.471 0.815-0.471zM13.898 7.598c0.3 0 0.7 0.39 1.088 0.824 0.756 0.792 1.304 1.268 2.371 1.373-0.63 0.509-1.178 0.686-2.127 0.686-0.3-0.237-0.376-0.468-0.892-0.547-0.439-0.509-0.63-1.631-0.439-2.337zM27.3 11.284c0.516 0 0.618 0.369 0.618 0.884 0 1.231 0.586 2.546 1.249 4.18 0.3 0.719 0.376 1.274 0.376 1.999 0 2.39-1.823 4.799-4.357 5.819 0.165-0.367 0.407-0.904 0.548-1.478 1.45-1.055 2.516-2.405 2.516-4.34 0-1.233-0.516-2.322-1.064-3.411-0.477-1.082-0.605-1.864-0.605-2.591 0-0.575 0.243-1.062 0.718-1.062zM12.17 8.462c0.229 0.819 0.484 1.11 0.835 1.466-0.477 0-0.707 0.178-0.707 0.612 0 0.289 0.127 0.526 0.465 0.526-0.229 0.852-0.3 1.592-0.3 3-0.477-1.083-0.955-3.048-0.955-4.052 0-0.575 0.274-1.262 0.662-1.551zM11.896 9.413c-0.287 0-0.312 0.198-0.312 0.41 0 0.21 0.102 0.316 0.268 0.316 0.242 0 0.396-0.151 0.396-0.356 0-0.211-0.128-0.37-0.351-0.37zM20.85 11.355c0.204 0 0.274 0.137 0.408 0.229-0.3 0.202-0.344 0.75-0.115 1.192-0.077-0.099-0.229-0.335-0.229-0.637 0-0.3 0.114-0.438 0.216-0.543-0.567-0.105-0.771 0.425-0.771 1.029-0.152-0.152-0.204-0.316-0.204-0.526 0-0.346 0.317-0.744 0.694-0.744zM5.989 11.64l1.028 1.608h-1.028v-1.608zM14.391 10.332c0.439 0 0.687 0.26 0.687 0.911 0 0.654-0.349 1.21-0.349 2.241 0 1.339 0.835 4.172 0.835 5.72 0 0.434-0.064 0.868-0.166 1.196-0.95 0.979-1.249 1.798-1.288 2.518h0.064c0.351-0.992 0.892-1.48 1.778-2.399 0.178-0.34 0.255-0.809 0.229-1.715 0.835 0 1.421-0.105 2.084-0.315-0.439 0.819-0.657 1.384-0.657 2.236 0 0.819 0.364 1.638 0.937 2.292l0.045-0.067c-0.274-0.712-0.312-1.066-0.312-1.572 0-1.669 0.975-3.484 3.11-4.264 0.708-0.289 1.057-0.434 1.299-0.652-0.758-1.082-2.592-2.774-2.592-4.005 0-0.434 0.312-1.027 0.751-1.027l0.006-0.078c-0.42 0-0.758 0.431-0.758 1.085 0 0.157 0.045 0.31 0.077 0.407-0.178-0.204-0.28-0.375-0.383-0.553 0.051-0.508 0.447-1.010 1.057-0.94v0.078c0.242-0.078 1.083 0.072 1.382 1.079 0.242 0.965 0.669 1.405 1.504 2.405 0.707 0.851 1.293 1.804 1.293 2.351 0 0.434-0.758 0.975-0.758 1.668 0 0.402 0.758 1.183 0.758 2.851 0 2.565-2.14 4.385-4.077 5.020-1.308 0.476-2.418 0.634-3.82 0.634-2.522 0-4.535-0.726-6.492-1.932-1.514-0.581-2.574-1.222-3.972-3.305-0.586-0.726-1.051-0.673-2.001-1.492-0.516-0.434-1.064-1.12-1.242-1.807l0.178-0.074c-1.027-0.819-2.093-2.468-2.093-3.745 0-0.172 0.032-0.214 0.186-0.214 0.516 0 1.459 0.634 2.294 0.897-0.477 0.575-0.561 1.057-0.617 1.902-1.027-0.44-1.613-1.523-1.791-2.559 0.101-0.118 0.172-0.132 0.3-0.132 0.401 0 1.427 0.548 2.3 0.749l0.261-0.434-0.338-0.223c0.847-1.039 1.759-1.329 2.787-1.329 0.95 0 1.656 0.289 2.491 1.108l-0.064 0.214 0.178 0.072 0.152-0.164c0.154 0.059 0.28 0.196 0.364 0.348l-0.184 0.177 0.082 0.131 0.216-0.151c0.154 0.224 0.23 0.631 0.23 0.933 0 0.952-0.312 1.798-1.379 2.573 0 0.078 0.102 0.045 0.147 0.038 0.873-0.211 1.256-0.865 1.638-1.267 0.401-0.138 0.966-0.138 1.317 0 0 0.369-0.256 0.474-1.046 0.945-1.106 0.673-1.729 1.499-1.805 2.588l0.064 0.013c0.349-1.327 1.216-1.948 2.423-2.496 0.351-0.164 0.573-0.302 0.815-0.433l0.133 0.191 0.038-0.367c0.364-0.852 0.388-1.44 0.319-3.11-0.077-1.233-0.179-3.489 0.445-4.442l0.236-0.104-0.12 0.575 0.127 0.032c0.154-0.509 0.332-0.814 0.684-0.814z"></path>
<path d="M7.987 14.080c-0.42 0.276-0.394 0.658-0.152 0.908 0.255 0.27 0.625 0.202 0.739-0.054 0.122-0.289-0.056-0.479-0.223-0.564 0-0.276 0.166-0.303 0.236-0.349-0.127-0.084-0.401-0.091-0.599 0.060z"></path>
<path d="M5.972 15.808c-0.586 0.105-0.611 0.66-0.649 1.215l0.12 0.033c0.216-0.308 0.332-0.707 0.586-0.707 0.090 0.434 0.23 0.614 0.517 0.575 0.274-0.046 0.401-0.276 0.356-0.653 0.192 0 0.344-0.033 0.485-0.172-0.402-0.172-0.899-0.384-1.416-0.292z"></path>
<path d="M8.997 15.373c-0.261 0-0.548 0.367-0.79 0.644l0.090 0.224c0.388 0.033 0.662-0.105 0.79 0.108 0.152 0.289 0.204 0.394 0.503 0.394-0.14 0.787-0.465 1.084-1.293 1.38l0.051 0.065c0.758-0.197 1.222-0.645 1.306-1.556 0.3 0 0.428-0.040 0.562-0.237l-0.090-0.124c-0.191 0.164-0.396 0.229-0.561 0.124-0.312-0.191-0.16-0.64-0.389-0.98l-0.179-0.041z"></path>
<path d="M7.72 17.024c-0.95 0.509-2.072 1.599-2.422 2.234l0.038 0.026c0.681-0.819 1.434-1.605 2.422-2.18l-0.038-0.079z"></path>
<path d="M7.924 17.229c-0.759 0.719-1.512 1.885-1.907 2.934l0.038 0.019c0.503-1.161 1.123-2.25 1.907-2.904l-0.038-0.049z"></path>
<path d="M8.026 17.485c-0.63 0.787-0.918 1.752-1.001 2.835l0.038 0.006c0.262-1.161 0.556-2.043 1.033-2.789l-0.070-0.052z"></path>
<path d="M10.868 13.325c-0.477 0.328-0.79 0.797-1.057 1.267l0.127 0.105c0.351-0.509 0.65-0.986 1.001-1.334l-0.070-0.038z"></path>
<path d="M11.493 14.733c-0.477 0.059-0.867 0.216-1.217 0.416l0.045 0.111c0.351-0.189 0.714-0.357 1.192-0.443l-0.019-0.084z"></path>
<path d="M11.418 14.131c-0.516 0.105-0.931 0.349-1.313 0.639l0.070 0.092c0.426-0.289 0.835-0.554 1.261-0.666l-0.018-0.065z"></path>
</symbol>
<symbol id="icon-cat3" viewBox="0 0 32 32">
<path d="M31.168 15.322c0-1.759-1.384-3.094-2.917-3.094h-0.244c-1.67 0-3.172 1.357-3.172 3.104 0 1.45 1.143 3.037 3.135 3.037 1.702 0 3.199-1.38 3.199-3.048zM25.532 15.534c-0.152-1.263 0.861-2.596 2.328-2.596h0.851c0.082 0.531-0.435 1.297-1.542 1.812-0.639 0.315-1.283 0.376-1.637 0.783zM25.683 16.113c0.269-0.614 0.837-0.741 1.58-1.088 1.079-0.499 1.783-1.244 1.876-1.914 0.573 0.259 1.080 0.772 1.212 1.261-0.588 0.184-1.044 0.755-1.357 1.633-0.323 0.923-1.075 1.554-1.83 1.528-0.649-0.020-1.303-0.933-1.481-1.421zM27.809 17.74c0.842-0.247 1.361-1.185 1.59-1.856 0.273-0.767 0.673-1.071 1.029-1.143 0.086 0.294 0.081 0.508 0.081 0.717 0 1.199-1.13 2.378-2.7 2.282z"></path>
<path d="M27.379 8.973c-0.188-0.68-0.732-1.071-1.356-1.020l-0.659 0.051c-0.896 0.072-1.403 1.051-1.824 1.612-0.721 0.959-1.375 1.736-1.998 1.857l-0.572-0.036c0.526-0.517 1.059-1.391 1.201-2.331l1.318 0.067 0.020-0.133-1.302-0.209v-0.381l1.446-0.218-0.010-0.082-1.436 0.133-0.133-0.631 1.43-0.474-0.010-0.041-1.425 0.397c-0.411-1.112-0.442-1.683-1.151-2.401-0.118-1.153-0.425-3.725-0.897-3.725-0.421 0-1.475 1.367-2.273 2.267-1.146 0.102-1.992 0.494-2.382 0.736-0.78-0.603-1.54-1.169-2.086-1.169-0.288 0-0.39 0.215-0.548 0.804-0.355 1.345-0.14 2.574 0.168 3.636 0.061 1.041 0.123 2.035 0.959 3.247 0.307 0.451 0.082 0.701-0.175 1.103-0.589 0.929-0.594 1.883-2.596 2.99-1.526 0.859-2.633 1.352-3.771 2.362-1.729-0.184-2.281-1.614-2.163-3.136 0.097-1.317 0.462-2.262-0.154-3.767-0.52-1.263-1.676-2.596-3.080-2.596-0.906 0-1.153 0.654-1.153 1.051 0 1.206 1.507 1.139 2.047 2.408 0.541 1.268-0.247 2.376-0.206 3.643 0.056 2.021 1.105 3.878 2.898 4.548l0.547 0.108c-0.806 1.811-0.168 3.261-0.919 3.887-0.617 0.517-1.015 0.43-1.472 2.277-0.26 1.036-0.532 1.864-0.858 2.456-0.252 0.479-0.349 1.524 0.417 2.076 0.355 0.269 0.612 0.233 0.841 0.233 0.908 0 1.434-0.718 1.618-1.743 0.173-0.963 0.576-2.221 0.883-2.272 0.896-0.154 1.732-0.406 2.284-0.786 0.421 1.071 0.68 1.9 0.654 2.971-0.026 0.828 0.562 1.302 1.162 1.261 0.846-0.061 1.249-0.941 1.126-1.719-0.087-0.567-0.485-1.395-0.444-2.112 0.020-0.339 0.465-0.39 1.021-0.513 1.358-0.312 2.367-1.466 2.726-3.223 1.307-0.718 1.955-1.235 3.314-2.436 0.507 0 1.29 0.020 1.722 0.271 0.75 0.412 1.14 1.037 1.992 1.037 0.205 0 0.431-0.072 0.69-0.123 0.845-0.179 1.060-0.842 1.009-1.496-0.051-0.698-0.495-0.992-1.504-1.638-0.721-0.462-1.431-0.722-1.928-0.937l0.307-0.69c0.813-0.516 1.847-0.716 2.344-1.231 0.796-0.828 1.682-2.646 2.615-3.587 0.705-0.722 1.788-0.773 1.727-1.985 0.010-0.133 0.077-0.294 0-0.648zM18.534 3.918c0.283-0.717 0.79-1.435 1.234-1.778l-0.817 1.911-0.417-0.133zM6.26 18.881c-1.418-0.154-2.906-2.111-2.906-4.132 0-1.268 0.297-1.923 0.241-3.195-0.020-0.379 0.010-0.835 0.37-0.835 0.607 0 0.632 0.768 0.566 1.74-0.092 1.317-0.403 2.554 0.18 3.821 0.472 1.038 1.192 1.489 2.171 1.74l-0.622 0.861zM23.182 19.96c-0.184-0.236-0.442-0.471-0.699-0.492 0.257 0.328 0.375 0.608 0.257 0.936-0.707 0.463-1.152-0.444-1.919-0.808-0.622-0.312-0.8-0.338-1.708-0.42-1.097-0.097-2.836-0.193-3.224-0.49-0.259-0.195-0.968-1.332-1.412-1.594 0.311 0.691 0.563 1.716 0.954 2.232 0.33 0.451 1.243 0.502 1.896 0.568-1.576 1.522-3.037 2.088-6.049 2.962 0.355-0.823 0.758-1.074 1.217-1.527-1.843 0.653-2.154 2.34-3.258 3.352-0.943 0.886-1.805 0.937-3.163 1.249l-0.406 0.312 0.252-0.029c-0.503 0.566-0.6 1.779-0.906 2.908-0.118 0.465-0.525 0.964-0.782 0.882 0.196-0.215 0.329-0.474 0.268-0.867-0.196 0.311-0.444 0.572-0.89 0.572-0.256-0.251-0.365-0.613-0.036-1.174 0.532-0.908 0.786-2.121 1.188-3.497 0.201-0.705 0.531-0.567 0.993-1.011 0.755-0.696 0.74-1.617 0.781-2.499 0.137-2.019 1.228-4.102 4.054-5.309 1.42-0.607 2.053-1.088 2.56-1.719l-0.061 0.769c0.507-0.959 0.507-2.107 1.389-3.256l0.168-0.489c0.623 0.453 1.343 0.55 2.209 0.448-1.256-0.312-3.156-1.139-3.279-3.561l0.355 0.051c-0.707-1.268-0.79-2.662-0.531-4.184 0.051-0.262 0.248-0.15 0.444-0.052 0.625 0.314 1.533 1.076 1.99 1.389l0.306-0.312-0.257-0.364c1.201-0.769 2.509-0.611 3.647-0.108 0.76 0.348 1.385 1.030 1.586 1.481l0.518 1.396-0.040 0.398-0.567 0.397 0.072 0.113 0.53-0.251v0.307l-0.602 0.311 0.051 0.097 0.571-0.209c-0.065 0.764-0.883 2.335-1.729 2.647-0.444 0.159-0.952 0.21-1.411 0.312 0.407 0.102 1.244 0.051 1.688-0.051 0.39 0.767 0.477 1.747 0.17 2.72l-0.252-0.626-0.063 0.375c0 0.826-0.184 2.036-0.381 2.604-0.673-0.133-1.352-0.317-1.727-1.204l-0.283-0.645 0.051 0.884c0.031 0.311 0.102 0.511 0.237 0.694l-0.417 0.051c0.869 0.568 1.873 0.819 2.633 1.034 1.144 0.333 2.504 1.010 2.948 1.577 0.225 0.312 0.23 0.563 0.069 0.717zM26.678 10.395c-0.381 0.325-0.948 0.525-1.518 1.093-0.954 0.956-1.714 2.458-2.861 3.412l-1.359 0.466c0.257-1.4 0.201-2.228-0.051-3.182 0.444 0.067 0.888 0.092 1.277-0.223 0.952-0.765 1.907-2.341 2.477-2.973 0.312-0.362 0.625-0.413 0.882-0.408 0.509 0.010 1.313-0.118 1.339 0.71 0.026 0.397 0.128 0.837-0.186 1.105z"></path>
<path d="M13.606 4.385c-0.352 0.957-0.152 2.225 0.673 3.246 0.209-0.765 0.474-1.217 1.087-1.622-0.506-0.564-1.129-1.281-1.76-1.624z"></path>
<path d="M17.651 7.503c-0.568 0-0.827 0.452-1.166 0.902l0.847-0.353c0 0.563 0.196 0.874 0.508 0.874 0.311 0 0.408-0.26 0.46-0.716l0.457 0.404c-0.102-0.512-0.6-1.112-1.106-1.112z"></path>
<path d="M20.57 6.478c-0.509 0-0.694 0.516-0.694 0.828 0 0.197 0.051 0.397 0.154 0.55l0.252-0.102c-0.051-0.261 0.051-0.663 0.247-0.663 0.152 0 0.25 0.102 0.301 0.307l0.2-0.205c-0.051-0.358-0.2-0.716-0.46-0.716z"></path>
<path d="M20.531 8.616c-0.196-0.102-0.763 0.051-1.020 0.25-0.207 0.159-0.106 0.358 0.095 0.41 0.311 0.082 0.416 0.184 0.416 0.381 0 0.205-0.259 0.568-0.764 0.568h-0.306v0.2c0.709 0.101 1.021-0.148 1.222-0.563 0.257 0.154 0.564 0.102 0.714-0.102l-0.15-0.102c-0.197 0.102-0.508 0-0.508-0.361 0-0.271 0.362-0.526 0.301-0.68z"></path>
<path d="M15.68 10.276c0.813-0.461 1.696-0.666 3.003-0.768v-0.156c-1.201 0.102-2.211 0.417-3.003 0.924z"></path>
<path d="M16.141 11.16c0.71-0.625 1.42-1.089 2.495-1.402v-0.102c-1.019 0.312-1.836 0.818-2.495 1.504z"></path>
<path d="M17.062 11.726c0.507-0.765 0.95-1.119 1.518-1.522v-0.102c-0.709 0.454-1.217 0.972-1.518 1.624z"></path>
<path d="M25.421 8.983c-0.312 0.102-0.415 0.364-0.307 0.568 0.106 0.207 0.415 0.207 0.568 0.054 0.209-0.207 0.157-0.622-0.261-0.622z"></path>
<path d="M26.24 8.983c-0.311 0.051-0.413 0.466-0.311 0.62 0.101 0.154 0.36 0.102 0.512-0.102 0.159-0.21 0.108-0.517-0.201-0.517z"></path>
<path d="M25.626 9.81c-0.411-0.051-0.815 0.21-0.964 0.471-0.051 0.152 0.355 0.46 0.709 0.608 0.257 0.102 0.453 0.051 0.556-0.256 0.152-0.408 0.101-0.772-0.301-0.823z"></path>
<path d="M26.445 9.912c-0.154 0.102-0.256 0.364-0.154 0.466 0.102 0.101 0.302 0 0.404-0.154s0.056-0.415-0.251-0.312z"></path>
</symbol>

</defs>
</svg>


